<?xml version="1.0" standalone="no"?>
<!DOCTYPE svg PUBLIC "-//W3C//DTD SVG 20010904//EN"
 "http://www.w3.org/TR/2001/REC-SVG-20010904/DTD/svg10.dtd">
<svg version="1.0" xmlns="http://www.w3.org/2000/svg"
 width="500.000000pt" height="500.000000pt" viewBox="0 0 500.000000 500.000000"
 preserveAspectRatio="xMidYMid meet">
<metadata>
Created by potrace 1.14, written by Peter Selinger 2001-2017
</metadata>
<g transform="translate(0.000000,500.000000) scale(0.100000,-0.100000)"
fill="#000000" stroke="none">
<path d="M1390 4626 c-62 -15 -102 -39 -134 -80 -50 -67 -57 -104 -61 -330 -2
-115 -7 -212 -12 -217 -4 -4 -30 -20 -58 -35 -116 -61 -357 -191 -510 -274
-151 -82 -184 -100 -230 -125 -127 -70 -153 -86 -177 -114 -40 -44 -56 -82
-63 -145 -8 -75 8 -129 96 -313 39 -81 84 -175 99 -208 37 -79 103 -218 185
-390 37 -77 95 -201 130 -275 34 -74 86 -184 115 -245 124 -261 163 -343 187
-395 100 -216 184 -379 209 -404 68 -67 176 -90 263 -57 25 10 141 69 256 132
116 63 235 127 267 144 l56 29 129 -86 c172 -116 612 -414 808 -549 427 -294
447 -305 536 -295 59 5 118 35 155 78 21 25 426 684 519 845 6 10 50 83 98
163 49 80 92 152 97 160 5 8 39 63 75 123 36 59 65 112 65 116 0 5 3 11 8 13
16 7 321 527 337 575 39 119 -17 254 -133 325 -21 12 -39 25 -42 28 -3 4 -63
46 -135 94 -71 48 -175 119 -230 157 -55 39 -107 73 -115 76 -8 4 -17 9 -20
13 -3 4 -70 51 -150 105 -80 54 -192 131 -250 170 -58 39 -161 109 -229 156
-68 46 -140 94 -160 105 l-36 22 -1 345 c-2 386 -6 412 -70 485 -19 22 -58 50
-87 63 l-52 23 -845 1 c-560 1 -860 -2 -890 -9z"/>
</g>
</svg>
